<svg x="0px" y="0px" width="120.9px" height="63.9px" viewBox="0 0 120.9 63.9" fill="#ffffff">
<g>
	<g>
					<path  d="M27.5,21.1l2.1-1.1V3.5H28l-3.9,5.2h-0.4l0.2-5.8h16.9l0.2,5.8h-0.5l-3.8-5.2h-1.6V20l2.1,1.1v0.6h-9.8
						V21.1z"/>
					<path  d="M42.7,20.4V2.1l-1.6-0.7V1.1L47,0h0.6v8.7l0.2-0.1c1.3-1.1,3.2-1.9,5.1-1.9c2.6,0,3.7,1.5,3.7,4.2v9.6
						l1.4,0.8l0,0.6h-7.7v-0.6l1.4-0.8v-9.6c0-1.5-0.7-2.1-1.9-2.1c-0.8,0-1.5,0.3-2,0.7v11l1.4,0.8v0.5h-7.7v-0.5L42.7,20.4z"/>
					<path  d="M62.2,14.8c0.2,3,1.5,5.4,4.7,5.4c1.6,0,2.7-0.7,3.7-1.3v0.6c-0.8,1.1-2.8,2.6-5.7,2.6
						c-5,0-7.5-2.8-7.5-7.6c0-4.7,2.8-7.6,7.3-7.6c4.2,0,6.4,2.1,6.4,7.7v0.1H62.2z M62.1,14.1l4.4-0.3c0-3.8-0.6-6.3-1.9-6.3
						C63.2,7.6,62.1,10.5,62.1,14.1z"/>
					<path  d="M0,29c0-8,5.3-10.8,11.2-10.8c2.5,0,4.9,0.4,6.2,0.9l0.1,5.6h-0.6l-3.5-5.4c-0.6-0.3-1.2-0.4-2.2-0.4
						c-3.1,0-4.7,3.6-4.7,9.5c0.1,7.1,1.3,10.3,4.2,10.3c0.7,0,1.3-0.1,1.7-0.3V31l-1.9-1.1v-0.6h9.2v0.7l-1.9,1v7.5
						c-1.6,0.6-4.2,1.2-6.9,1.2C4.3,39.6,0,36.5,0,29z"/>
					<path  d="M19,25.3v-0.5l6.2-1.1l0.7,0.1V36c0,1.5,0.7,1.9,1.9,1.9c0.8,0,1.4-0.3,2-0.9V26L28,25.3v-0.5l6.2-1.1
						l0.6,0.1v13.9l1.7,0.7v0.4l-6.1,0.7l-0.6-0.1v-1.8h-0.2c-1.1,1-2.7,1.9-4.6,1.9c-3,0-4.3-1.7-4.3-4.4V26L19,25.3z"/>
					<path  d="M57.6,23.7l0.5,0.1l0,4.5h0.1c0.7-3.3,2.1-4.5,3.9-4.5c0.3,0,0.6,0,0.8,0.1v4.6c-0.3-0.1-0.8-0.1-1.3-0.1
						c-1.4,0-2.4,0.3-3.4,0.7l0,8.9l1.4,0.8l0,0.6h-8v-0.6l1.4-0.8V25.8l-1.7-0.5v-0.4L57.6,23.7z"/>
					<path  d="M73.1,24.1v-4.7l-1.7-0.6v-0.4l6.2-1.1l0.6,0.1v20.4l1.7,0.6v0.5l-6.1,0.8l-0.5-0.1V38h-0.1
						c-0.9,0.9-2.1,1.7-4.1,1.7c-3.4,0-5.8-2.6-5.8-7.8c0-5.5,2.8-8.2,7.2-8.2C71.6,23.6,72.6,23.9,73.1,24.1z M73,37.2V25
						c-0.4-0.3-0.7-0.6-1.7-0.5c-1.7,0.1-2.7,2.6-2.7,7c0,4,0.7,6.3,3,6.2C72.2,37.7,72.7,37.5,73,37.2z"/>
					<path  d="M86.6,23.7l0.5,0.1v14.1l1.4,0.8l0,0.6h-8v-0.6l1.4-0.8V26l-1.7-0.7v-0.5L86.6,23.7z M87.2,19.9
						c0,1.5-1.3,2.6-2.7,2.6c-1.5,0-2.7-1.1-2.7-2.6c0-1.5,1.2-2.6,2.7-2.6C85.9,17.3,87.2,18.4,87.2,19.9z"/>
					<path  d="M105.1,37.9v-12l-1.7-0.6v-0.6l6.1-1.1l0.6,0.1v1.8h0.2c1.3-1.2,3.3-1.9,5.2-1.9c2.7,0,3.9,1.3,3.9,4.1
						v10.3l1.4,0.8l0,0.6h-8v-0.6l1.4-0.8V27.8c0-1.5-0.7-2.2-1.9-2.2c-0.8,0-1.5,0.2-2.1,0.7v11.6l1.4,0.8v0.6h-8v-0.6L105.1,37.9z
						"/>
					<path  d="M96.4,30.4v-2c0-3-0.7-4-2.5-4c-0.2,0-0.4,0-0.6,0.1l-3.3,4.5h-0.5v-4.2c1.4-0.4,3.2-1,5.6-1
						c4.1,0,6.5,1.1,6.5,4.6v9.8l1.5,0.4v0.4c-0.6,0.4-1.7,0.7-3,0.7c-2,0-3-0.7-3.4-1.8h-0.1c-0.9,1.2-2.1,1.8-4,1.8
						c-2.4,0-4.1-1.5-4.1-4.1c0-2.5,1.6-3.9,4.8-4.5L96.4,30.4z M96.4,37.2v-6.1l-1,0.1c-1.6,0.1-2.2,1.2-2.2,3.4
						c0,2.5,0.8,3.1,1.9,3.1C95.8,37.7,96.2,37.5,96.4,37.2z"/>
					<path  d="M44.5,30.4v-2c0-3-0.7-4-2.5-4c-0.2,0-0.4,0-0.6,0.1L38,28.9h-0.5v-4.2c1.4-0.4,3.2-1,5.6-1
						c4.1,0,6.5,1.1,6.5,4.6v9.8l1.5,0.4v0.4c-0.6,0.4-1.7,0.7-3,0.7c-2,0-3-0.7-3.4-1.8h-0.1c-0.9,1.2-2.1,1.8-4,1.8
						c-2.4,0-4.1-1.5-4.1-4.1c0-2.5,1.6-3.9,4.8-4.5L44.5,30.4z M44.5,37.2v-6.1l-1,0.1c-1.6,0.1-2.2,1.2-2.2,3.4
						c0,2.5,0.8,3.1,1.9,3.1C43.9,37.7,44.3,37.5,44.5,37.2z"/>
	</g>
	<g>
		<path  d="M23.1,63.1l-0.2-5.8h0.5l3.3,6c1.7,0,2.6-1.1,2.6-4V44.1l-1.9-0.4v-0.5H37v0.5l-1.8,0.4v13.4
			c0,4.1-2.2,6.3-7,6.3C26.1,63.8,24.4,63.6,23.1,63.1z"/>
		<path  d="M36.4,55.7c0-4.9,3.1-8,7.9-8c4.7,0,7.9,3.1,7.9,8c0,5-3.1,8.2-7.9,8.2C39.6,63.9,36.4,60.7,36.4,55.7z
			 M42,55.7c0,6.1,0.8,7.6,2.4,7.6c1.5,0,2.3-1.6,2.3-7.7c0-6-0.8-7.5-2.4-7.5C42.8,48.2,42,49.7,42,55.7z"/>
		<path  d="M68.3,55.3c0,6-3.4,8.5-8.4,8.5c-2.6,0-5.1-0.5-6.5-1.3V43.3l-1.7-0.6v-0.5l6.1-0.9l0.6,0.1v8.3h0.2
			c0.8-0.9,2.3-1.9,4.4-1.9C65.9,47.7,68.3,49.7,68.3,55.3z M62.9,55.8c0-4.6-1-6-2.8-6c-0.6,0-1.2,0.1-1.6,0.3v12.6
			c0.4,0.4,0.9,0.6,1.6,0.6C61.8,63.3,62.9,61.5,62.9,55.8z"/>
		<path  d="M80.7,58.8c0,3.2-2.2,5.1-6.3,5.1c-1.9,0-3.8-0.2-5.3-0.8L69,58.5h0.5l4,4.7c0.3,0.1,0.6,0.1,0.8,0.1
			c1.7,0,2.5-0.9,2.5-2.4c0-1.3-0.7-1.7-2.4-2.6L73.4,58c-2.8-1.3-4.4-2.7-4.4-5.3c0-3.1,2.2-5,6-5c1.5,0,3.2,0.1,4.5,0.5l0.1,4.2
			h-0.5l-3.1-4.1c-0.3-0.1-0.7-0.2-1-0.2c-1.5,0-2.2,0.9-2.2,2.1c0,1.4,0.6,1.8,2.5,2.7l0.9,0.4C79.2,54.7,80.7,55.9,80.7,58.8z"/>
	</g>
</g>
</svg>
