<svg x="0px" y="0px" width="120px" height="70px" viewBox="0 0 250 130" fill="#ffffff">
<g>
				<path d="M53.2,40.9l4.1-2.1v-32h-3.1l-7.5,10h-0.8l0.5-11.1h32.6l0.5,11.1h-0.9l-7.4-10h-3.2v31.9l4.1,2.2v1.1H53.2
					V40.9z"/>
				<path d="M82.5,39.5V4l-3.2-1.3V2.1L90.8,0H92v16.8l0.3-0.3c2.5-2.2,6.2-3.6,9.8-3.6c5,0,7.2,2.8,7.2,8.1v18.5
					l2.7,1.5l0,1.1h-15v-1.1l2.7-1.5V20.9c0-2.9-1.3-4.1-3.6-4.1c-1.6,0-2.9,0.5-4,1.3v21.3l2.6,1.5v1h-15v-1L82.5,39.5z"/>
				<path d="M120.1,28.6c0.3,5.9,2.9,10.4,9.2,10.4c3,0,5.1-1.4,7.2-2.5v1.2c-1.6,2.1-5.5,5.1-11,5.1
					c-9.6,0-14.6-5.4-14.6-14.6c0-9.1,5.4-14.7,14.1-14.7c8.2,0,12.4,4.1,12.4,14.9v0.3H120.1z M120,27.2l8.5-0.5
					c0-7.3-1.2-12.1-3.7-12.1C122.1,14.6,120,20.2,120,27.2z"/>
				<path d="M0,56.1c0-15.4,10.2-20.9,21.6-20.9c4.8,0,9.4,0.8,11.9,1.8l0.2,10.8h-1.1L26,37.4
					c-1.1-0.5-2.2-0.7-4.2-0.7c-6.1,0-9.1,7-9,18.5c0.1,13.7,2.5,19.9,8.1,19.9c1.4,0,2.6-0.2,3.3-0.6V59.8l-3.7-2.1v-1.2h17.7v1.3
					l-3.6,2v14.5c-3,1.2-8.1,2.3-13.4,2.3C8.2,76.6,0,70.6,0,56.1z"/>
				<path d="M36.6,48.9V48l11.9-2.1l1.3,0.1v23.5c0,2.8,1.4,3.7,3.6,3.7c1.5,0,2.8-0.6,3.9-1.8V50.3l-3.3-1.4V48
					L66,45.9l1.2,0.1v26.9l3.2,1.3v0.9l-11.8,1.4l-1.2-0.1v-3.5h-0.3c-2.2,2-5.2,3.8-8.9,3.8c-5.7,0-8.3-3.4-8.3-8.5V50.3L36.6,48.9
					z"/>
				<path d="M111.3,45.9l1,0.1l0,8.7h0.3c1.3-6.4,4.1-8.7,7.5-8.7c0.5,0,1.1,0.1,1.5,0.2V55c-0.5-0.2-1.5-0.2-2.4-0.2
					c-2.7,0-4.7,0.5-6.5,1.3l0,17.2l2.7,1.5l0,1.1H99.8v-1.1l2.8-1.5V49.9l-3.3-1v-0.8L111.3,45.9z"/>
				<path d="M141.2,46.6v-9.2l-3.3-1.1v-0.7l12-2.2l1.1,0.2v39.4l3.3,1.2v1l-11.9,1.6l-0.9-0.1v-3.3h-0.3
					c-1.7,1.7-4.1,3.3-7.9,3.3c-6.5,0-11.2-5-11.2-15.1c0-10.7,5.5-15.9,13.8-15.9C138.5,45.7,140.3,46.1,141.2,46.6z M141.2,71.8
					V48.3c-0.8-0.5-1.3-1.1-3.3-1c-3.2,0.1-5.2,5-5.2,13.6c0,7.8,1.4,12.1,5.7,12C139.6,72.8,140.6,72.4,141.2,71.8z"/>
				<path d="M167.4,45.9l1,0.1v27.3l2.7,1.5l0,1.1h-15.4v-1.1l2.8-1.5v-23l-3.3-1.3v-0.9L167.4,45.9z M168.5,38.5
					c0,2.9-2.4,5.1-5.3,5.1c-2.9,0-5.2-2.2-5.2-5.1c0-2.9,2.3-5.1,5.2-5.1C166,33.4,168.5,35.6,168.5,38.5z"/>
				<path d="M203.2,73.3V50l-3.3-1.1v-1.1l11.9-2.2l1.2,0.1v3.5h0.3c2.6-2.3,6.4-3.8,10.1-3.8c5.2,0,7.5,2.4,7.5,7.9v20
					l2.8,1.5l0,1.1h-15.4v-1.1l2.8-1.5V53.8c0-3-1.3-4.2-3.8-4.2c-1.6,0-2.9,0.4-4.1,1.3v22.4l2.7,1.5v1.1h-15.5v-1.1L203.2,73.3z"
					/>
				<path d="M186.4,58.7v-3.9c0-5.9-1.3-7.8-4.9-7.8c-0.4,0-0.8,0.1-1.2,0.1l-6.5,8.8h-0.9v-8.1
					c2.8-0.9,6.3-1.9,10.9-1.9c7.9,0,12.5,2.2,12.5,8.8v19l2.8,0.7v0.7c-1.1,0.7-3.4,1.3-5.8,1.3c-3.9,0-5.8-1.3-6.6-3.4h-0.3
					c-1.7,2.2-4,3.5-7.7,3.5c-4.7,0-7.9-2.9-7.9-8c0-4.9,3-7.6,9.2-8.8L186.4,58.7z M186.4,71.8V60.1l-2,0.2
					c-3.1,0.3-4.2,2.2-4.2,6.6c0,4.8,1.6,6,3.7,6C185.1,72.8,185.8,72.5,186.4,71.8z"/>
				<path d="M86.1,58.7v-3.9c0-5.9-1.3-7.8-4.9-7.8c-0.4,0-0.8,0.1-1.2,0.1l-6.5,8.8h-0.9v-8.1
					c2.8-0.9,6.3-1.9,10.9-1.9c7.9,0,12.5,2.2,12.5,8.8v19l2.8,0.7v0.7c-1.1,0.7-3.4,1.3-5.8,1.3c-3.9,0-5.8-1.3-6.6-3.4H86
					c-1.7,2.2-4,3.5-7.7,3.5c-4.7,0-7.9-2.9-7.9-8c0-4.9,3-7.6,9.2-8.8L86.1,58.7z M86.1,71.8V60.1l-2,0.2c-3.1,0.3-4.2,2.2-4.2,6.6
					c0,4.8,1.6,6,3.7,6C84.9,72.8,85.6,72.5,86.1,71.8z"/>
</g>
<g>
	<path d="M16,121.8l4.8-2.7l0.1-33.6L16,84.1l0-0.9l16.4,0l9.2,28.3l0.2,0l8.5-28.3l15,0l0,0.9L61.6,85l-0.1,36.1
		l3.7,0.8l0,0.9l-18.2,0l0-0.9l3.2-0.8l0.1-33.3l-0.3,0l-10.3,35l-5.7,0l-11.8-35l-0.3,0l-0.1,31.4l5.1,2.7l0,0.9l-11,0L16,121.8z"
		/>
	<path d="M74.8,106.8c0.4,7.4,2.7,12,10.4,12c2.5,0,4.7-0.3,6.7-1.2l0,0.9c-1.7,2.6-5.9,5.3-11.9,5.2
		c-10.2,0-15.4-6.2-15.3-16c0-9.6,5.7-15.6,15-15.6c9.3,0,13.2,5,13.1,13.9l0,0.8L74.8,106.8z M74.8,105.7l8.5-0.4
		c0-9.4-1.2-12.1-3.9-12.1C76.6,93.1,74.9,97,74.8,105.7z"/>
	<path d="M96.1,121.1l0-24.9l-3.3-1.3l0-0.9l11.9-1.7l1.2,0.1l0,4l0.3,0c2.6-2.6,5.4-4.2,9.3-4.2c3.5,0,5.6,1.1,6.7,4.3
		l0.2,0c2.7-2.7,5.7-4.3,9.6-4.3c4.9,0,7.6,2.5,7.6,8l0,21l3.2,0.8l0,0.9l-15.5,0l0-0.9l2.5-0.8l0-20.9c0-2.7-1.3-3.8-3.7-3.8
		c-1.2,0-2.4,0.4-3.4,0.9l0,23.8l2.5,0.8l0,0.9l-14.6,0l0-0.9l2.5-0.8l0-20.9c0-2.7-1.1-3.8-3.7-3.8c-1.4,0-2.5,0.4-3.5,1l0,23.7
		l2.4,0.8l0,0.9l-15.5,0l0-0.9L96.1,121.1z"/>
	<path d="M173.6,107.1c0,11.6-6.6,16.7-16.4,16.7c-5.2,0-10-1.1-12.8-2.7l0.1-37.5l-3.3-1.3l0-0.9l12-1.7l1.2,0.2
		l0,16.2l0.3,0c1.5-1.8,4.6-3.8,8.6-3.8C169,92.2,173.6,96.2,173.6,107.1z M163,108.1c0-8.9-2-11.7-5.4-11.7c-1.2,0-2.3,0.3-3.2,0.7
		l0,24.5c0.8,0.7,1.8,1.2,3.1,1.2C160.9,122.7,163,119.1,163,108.1z"/>
	<path d="M185.3,107c0.4,7.4,2.7,12,10.4,12c2.5,0,4.7-0.3,6.7-1.2l0,0.9c-1.7,2.6-5.9,5.3-11.9,5.2
		c-10.2,0-15.4-6.2-15.3-16c0-9.6,5.7-15.6,15-15.6c9.3,0,13.2,5,13.1,13.9l0,0.8L185.3,107z M185.3,105.9l8.5-0.4
		c0-9.4-1.2-12.1-3.9-12.1C187.1,93.4,185.3,97.2,185.3,105.9z"/>
	<path d="M215.1,92.5l1,0.1l0,8.6l0.3,0c1.5-6.5,4.1-9,7.5-9c0.5,0,1.2,0.1,1.5,0.2l0,9.1c-0.5-0.2-1.5-0.2-2.5-0.2
		c-2.7,0-4.8,0.3-6.5,1l0,19.2l4.1,0.8l0,0.9l-17.2,0l0-0.9l3.1-0.8l0-24.9l-3.3-1.3l0-0.9L215.1,92.5z"/>
	<path d="M250.3,113.9c0,6.2-4.4,9.9-12.4,9.9c-3.6,0-7.4-0.5-10.3-1.6l-0.3-8.9l0.9,0l7.8,9.2c0.5,0.2,1.2,0.3,1.6,0.3
		c3.3,0,4.9-1.8,4.9-4.6c0-2.5-1.3-3.4-4.8-5.1l-1.8-0.8c-5.5-2.6-8.7-5.3-8.7-10.3c0-6.1,4.3-9.8,11.7-9.7c3,0,6.3,0.3,8.8,1
		l0.3,8.3l-0.9,0l-6-8c-0.7-0.2-1.3-0.3-1.9-0.3c-3,0-4.3,1.7-4.3,4.2c0,2.7,1.3,3.6,4.9,5.3l1.7,0.8
		C247.3,106.1,250.3,108.5,250.3,113.9z"/>
</g>
</svg>
