<svg x="0px" y="0px" width="120.9px" height="63.9px" viewBox="0 0 120.9 63.9" fill="#ffffff">
<g>
				<path d="M20.9,16.1l1.6-0.8V2.7h-1.2l-3,3.9H18l0.2-4.4H31l0.2,4.4h-0.4L28,2.7h-1.2v12.6l1.6,0.9v0.4h-7.4V16.1z"
					/>
				<path d="M32.5,15.5v-14l-1.2-0.5V0.8L35.7,0h0.5v6.6l0.1-0.1c1-0.9,2.4-1.4,3.9-1.4c2,0,2.8,1.1,2.8,3.2v7.3
					l1.1,0.6l0,0.4h-5.9v-0.4l1.1-0.6V8.2c0-1.1-0.5-1.6-1.4-1.6c-0.6,0-1.2,0.2-1.6,0.5v8.4l1,0.6v0.4h-5.9v-0.4L32.5,15.5z"/>
				<path d="M47.3,11.2c0.1,2.3,1.2,4.1,3.6,4.1c1.2,0,2-0.5,2.8-1v0.5c-0.6,0.8-2.2,2-4.3,2c-3.8,0-5.7-2.1-5.7-5.8
					c0-3.6,2.1-5.8,5.6-5.8c3.2,0,4.9,1.6,4.9,5.9v0.1H47.3z M47.2,10.7l3.3-0.2c0-2.9-0.5-4.8-1.5-4.8C48,5.7,47.2,8,47.2,10.7z"/>
				<path d="M0,22.1c0-6.1,4-8.2,8.5-8.2c1.9,0,3.7,0.3,4.7,0.7l0.1,4.2h-0.4l-2.6-4.1c-0.5-0.2-0.9-0.3-1.7-0.3
					c-2.4,0-3.6,2.8-3.6,7.3c0,5.4,1,7.8,3.2,7.8c0.6,0,1-0.1,1.3-0.2v-5.8L8,22.7v-0.5h7v0.5l-1.4,0.8v5.7
					c-1.2,0.5-3.2,0.9-5.3,0.9C3.2,30.2,0,27.8,0,22.1z"/>
				<path d="M14.4,19.3v-0.4l4.7-0.8l0.5,0v9.2c0,1.1,0.5,1.5,1.4,1.5c0.6,0,1.1-0.2,1.5-0.7v-8.3l-1.3-0.6v-0.4
					l4.7-0.8l0.5,0v10.6l1.3,0.5v0.3l-4.6,0.6l-0.5,0v-1.4h-0.1c-0.9,0.8-2.1,1.5-3.5,1.5c-2.2,0-3.3-1.3-3.3-3.3v-7L14.4,19.3z"/>
				<path d="M43.8,18.1l0.4,0l0,3.4h0.1c0.5-2.5,1.6-3.4,3-3.4c0.2,0,0.4,0,0.6,0.1v3.5c-0.2-0.1-0.6-0.1-1-0.1
					c-1.1,0-1.9,0.2-2.5,0.5l0,6.8l1.1,0.6l0,0.4h-6.1v-0.4l1.1-0.6v-9.2l-1.3-0.4v-0.3L43.8,18.1z"/>
				<path d="M55.6,18.3v-3.6l-1.3-0.4V14l4.7-0.9l0.4,0.1v15.5l1.3,0.5v0.4l-4.7,0.6l-0.4,0v-1.3h-0.1
					c-0.7,0.7-1.6,1.3-3.1,1.3c-2.5,0-4.4-1.9-4.4-5.9c0-4.2,2.2-6.3,5.4-6.3C54.5,18,55.2,18.2,55.6,18.3z M55.6,28.3V19
					c-0.3-0.2-0.5-0.4-1.3-0.4c-1.3,0-2,2-2,5.4c0,3.1,0.6,4.8,2.2,4.7C54.9,28.7,55.3,28.5,55.6,28.3z"/>
				<path d="M65.9,18l0.4,0v10.8l1.1,0.6l0,0.4h-6.1v-0.4l1.1-0.6v-9.1l-1.3-0.5v-0.4L65.9,18z M66.3,15.1
					c0,1.1-1,2-2.1,2c-1.2,0-2.1-0.9-2.1-2c0-1.1,0.9-2,2.1-2C65.3,13.1,66.3,14,66.3,15.1z"/>
				<path d="M80,28.8v-9.2l-1.3-0.4v-0.4l4.7-0.9l0.5,0v1.4h0.1c1-0.9,2.5-1.5,4-1.5c2,0,2.9,1,2.9,3.1v7.9l1.1,0.6
					l0,0.4h-6.1v-0.4l1.1-0.6v-7.7c0-1.2-0.5-1.6-1.5-1.6c-0.6,0-1.1,0.2-1.6,0.5v8.8l1.1,0.6v0.4h-6.1v-0.4L80,28.8z"/>
				<path d="M73.3,23.1v-1.5c0-2.3-0.5-3.1-1.9-3.1c-0.2,0-0.3,0-0.5,0L68.4,22H68v-3.2c1.1-0.3,2.5-0.7,4.3-0.7
					c3.1,0,4.9,0.9,4.9,3.5V29l1.1,0.3v0.3c-0.4,0.3-1.3,0.5-2.3,0.5c-1.5,0-2.3-0.5-2.6-1.3h-0.1c-0.7,0.9-1.6,1.4-3,1.4
					c-1.9,0-3.1-1.2-3.1-3.2c0-1.9,1.2-3,3.6-3.4L73.3,23.1z M73.3,28.3v-4.6l-0.8,0.1c-1.2,0.1-1.7,0.9-1.7,2.6
					c0,1.9,0.6,2.4,1.5,2.4C72.9,28.7,73.1,28.5,73.3,28.3z"/>
				<path d="M33.9,23.1v-1.5c0-2.3-0.5-3.1-1.9-3.1c-0.2,0-0.3,0-0.5,0L28.9,22h-0.4v-3.2c1.1-0.3,2.5-0.7,4.3-0.7
					c3.1,0,4.9,0.9,4.9,3.5V29l1.1,0.3v0.3c-0.4,0.3-1.3,0.5-2.3,0.5c-1.5,0-2.3-0.5-2.6-1.3h-0.1c-0.7,0.9-1.6,1.4-3,1.4
					c-1.9,0-3.1-1.2-3.1-3.2c0-1.9,1.2-3,3.6-3.4L33.9,23.1z M33.9,28.3v-4.6l-0.8,0.1c-1.2,0.1-1.7,0.9-1.7,2.6
					c0,1.9,0.6,2.4,1.5,2.4C33.4,28.7,33.7,28.5,33.9,28.3z"/>
</g>
<g>
	<path d="M18.5,47.8l-0.2-4.3h0.4L22,48c0.4,0.1,0.8,0.2,1.1,0.2c1.9,0,2.8-0.9,2.8-2.5c0-1.6-0.9-2.4-3.1-3.2l-0.8-0.3
		c-2.4-1-3.7-2.3-3.7-4.8c0-2.7,1.7-4.8,5.7-4.8c2,0,3.2,0.3,4.2,0.6l0.2,4h-0.4L25,33c-0.3-0.1-0.6-0.2-0.9-0.2
		c-1.7,0-2.6,1-2.6,2.4c0,1.4,0.7,2.1,2.7,2.8l0.9,0.3c2.7,1,4.3,1.9,4.3,4.9c0,3.3-2.3,5.2-6.1,5.2C21.4,48.5,19.6,48.2,18.5,47.8z
		"/>
	<path d="M29.8,42.4c0-3.8,2.4-6.1,6-6.1s6.1,2.3,6.1,6.1c0,3.8-2.4,6.2-6,6.2C32.2,48.6,29.8,46.2,29.8,42.4z M34,42.4
		c0,4.6,0.6,5.8,1.8,5.8c1.2,0,1.8-1.2,1.8-5.9c0-4.6-0.6-5.7-1.8-5.7C34.6,36.6,34,37.8,34,42.4z"/>
	<path d="M41.2,37.3V37l4.7-0.7l0.5,0v8.9c0,1.3,0.6,1.7,1.5,1.7c0.5,0,1-0.2,1.5-0.3v-8.7l-1.3-0.5V37l4.7-0.7l0.5,0
		v10.6l1.3,0.5v0.4l-4.6,0.7l-0.5,0V47h-0.1c-0.9,0.9-2.1,1.6-3.5,1.6c-2.3,0-3.3-1.3-3.3-3.4v-7.4L41.2,37.3z"/>
	<path d="M59.5,31.3l0.5,0.1v16.2l1.2,0.3v0.4h-6.4v-0.4l1.2-0.3V32.8l-1.3-0.5V32L59.5,31.3z"/>
	<path d="M62.7,47.6v-9.7l-1.3-0.5V37l4.7-0.7l0.5,0v1.5h0.1c1-1,2.1-1.7,3.7-1.7c1.4,0,2.2,0.4,2.6,1.7H73
		c1.1-1.1,2.2-1.7,3.8-1.7c1.9,0,3,1,3,3.1v8.2l1.2,0.3v0.4H75v-0.4l1-0.3v-8.2c0-1.1-0.5-1.5-1.5-1.5c-0.5,0-0.9,0.2-1.3,0.4v9.3
		l1,0.3v0.4h-5.7v-0.4l1-0.3v-8.2c0-1.1-0.4-1.5-1.4-1.5c-0.5,0-1,0.2-1.4,0.4v9.3l0.9,0.3v0.4h-6.1v-0.4L62.7,47.6z"/>
	<path d="M87,41.4v-1.6c0-2.4-0.5-3.2-1.8-3.2c-0.2,0-0.3,0-0.4,0l-2.9,3.9h-0.4l0.1-3.7c1.1-0.3,2.5-0.7,4.4-0.7
		c3.2,0,5,0.9,5,3.5v7.7l1.1,0.3V48c-0.5,0.3-1.4,0.5-2.3,0.5c-1.6,0-2.3-0.5-2.7-1.4h-0.1c-0.7,0.9-1.6,1.4-3.1,1.4
		c-1.9,0-3.2-1.2-3.2-3.2c0-2,1.2-3.1,3.7-3.5L87,41.4z M87,46.7v-4.7L86.2,42c-1.2,0.1-1.7,0.9-1.7,2.7c0,1.9,0.6,2.4,1.5,2.4
		C86.5,47.1,86.7,46.9,87,46.7z"/>
	<path d="M90.9,37.3v-0.4l1.7-0.4v-2.1l3.9-0.6v2.7h2.6v0.8h-2.6v7.8c0,1.2,0.4,1.7,1.7,1.7c0.4,0,0.8,0,1.1-0.1v0.4
		c-0.7,0.7-1.9,1.4-3.3,1.4c-2.2,0-3.4-1-3.4-3.6v-7.6H90.9z"/>
	<path d="M102.8,42c0.2,2.9,1.1,4.7,4.1,4.7c1,0,1.8-0.1,2.6-0.5v0.3c-0.7,1-2.3,2.1-4.6,2.1c-4,0-6-2.4-6-6.3
		c0-3.8,2.2-6.1,5.8-6.1c3.6,0,5.2,1.9,5.2,5.4V42H102.8z M102.8,41.6l3.3-0.2c0-3.7-0.5-4.8-1.5-4.8
		C103.5,36.7,102.8,38.2,102.8,41.6z"/>
	<path d="M119.2,44.7c0,2.4-1.7,3.9-4.8,3.9c-1.4,0-2.9-0.2-4-0.6l-0.1-3.5h0.4l3.1,3.6c0.2,0.1,0.5,0.1,0.6,0.1
		c1.3,0,1.9-0.7,1.9-1.8c0-1-0.5-1.3-1.9-2l-0.7-0.3c-2.2-1-3.4-2.1-3.4-4c0-2.4,1.7-3.8,4.6-3.8c1.2,0,2.5,0.1,3.5,0.4l0.1,3.2H118
		l-2.3-3.1c-0.3-0.1-0.5-0.1-0.8-0.1c-1.2,0-1.7,0.7-1.7,1.6c0,1.1,0.5,1.4,1.9,2.1l0.7,0.3C118,41.6,119.2,42.5,119.2,44.7z"/>
</g>
</svg>
