<svg xmlns="http://www.w3.org/2000/svg" width="256" height="64" viewBox="0 0 256 64">
    <g fill="#fff">
        <path
            d="M119.6.1a2.6 2.6 0 100 5.3c1.4 0 2.6-1.2 2.6-2.6 0-1.5-1.2-2.7-2.6-2.7m18.8 21.5h8.2v-1.4l-1.6-.7V9.9c.6-.4 1.3-.6 2-.6 1.4 0 2 .6 2 2.1v8l-1.6.8v1.4h8.2v-1.4l-1.7-.7v-9.2c0-2.7-1.2-4-3.7-4-2 0-4 .8-5.3 2v-2h-.4l-6.1 1v1.3l1.7.8v10l-1.7.8v1.4zM115.5 7.3v1.3l1.7.8v10l-1.6.8v1.4h8v-1.4l-1.5-.8V6.3h-.4m-13.1 12.5c-.4.3-.8.5-1.5.5-2 0-3-1.6-3-5.3 0-4.2 1.3-5.6 2.8-5.6.9 0 1.3.3 1.7.7v9.7zm0-11.8c-.6-.4-1.6-.7-2.4-.7-3.6 0-7.1 2.1-7.1 8.1 0 5.7 3.5 7.6 5.8 7.6 1.9 0 3.1-.9 3.7-1.7h.2V22h.4l5.9-.7v-1l-1.6-1V.3h-.4l-6.2 1v1.4l1.7.8V7zM88 7.3v1.3l1.6.8v10l-1.5.8v1.4h8.5v-1.4l-2-.8v-7.8a5 5 0 013.3-1l1.2.2V6.5l-.7-.1c-1.6 0-3.1 1-4 3V6.3H94l-6 1zM77.5 8.4l1.3-.1c2 0 2.5 1 2.5 2.8v1.7l-2.9.5c-2.9.6-5 1.4-5 4.5a4 4 0 004 4.2c2 0 3.7-.8 4.3-2.2h.2C82 21.4 83.5 22 85 22c1.2 0 2.4-.3 2.8-.8v-.9l-1.6-.7v-8.7c0-3.3-2.4-4.5-6.3-4.5-2.6 0-4.3.6-5.7 1.3v3.8h2.3l1-3zm3.8 10.2c-.3.4-.8.7-1.4.7-1 0-1.8-.6-1.8-2.2 0-1.2 1-2.3 2.2-2.4l1-.2v4.1zM127.7 8.4l1.3-.1c1.9 0 2.5 1 2.5 2.8v1.7l-2.9.5c-2.9.6-5 1.4-5 4.5a4 4 0 004 4.2c1.9 0 3.6-.8 4.3-2.2h.1c.3 1.6 1.7 2.1 3.2 2.1 1.2 0 2.3-.3 2.8-.8v-.9l-1.6-.7v-8.7c0-3.3-2.4-4.5-6.3-4.5-2.6 0-4.3.6-5.7 1.3v3.8h2.3l1-3zm3.8 10.2c-.3.4-.9.7-1.4.7-1 0-1.9-.6-1.9-2.2 0-1.2 1.1-2.3 2.3-2.4l1-.2v4.1zM58 17.2c0 2.6 1.3 4.8 4.3 4.8 2 0 3.7-1 4.7-2v2h.4l6-.8v-1l-1.7-1V6.5h-.4l-6.1 1v1.3l1.6.8v8.9c-.5.3-1 .5-1.8.5-1.2 0-2-.4-2-2V6.3h-.5l-6.1 1v1.3l1.6.8v7.7zM52 18.3h-5.3c-.6 0-1.1-.4-1.1-1 0-.3.3-.8.7-1 .8.2 1.4.3 2.4.3 3.8 0 6.5-1.8 6.5-5 0-1.5-.7-2.3-1.6-3.1l2.5.7v-3L52 7c-.9-.3-2.2-.7-3.4-.7-3.8 0-6.5 2-6.5 5.1 0 2 1 3.5 2.5 4.3h.1c-.8.6-2.6 2-2.6 3.5 0 1.2.8 2.3 2.4 2.7-1.7.3-3.6 1-3.6 3s2.9 4 7.5 4c5.9 0 8.4-2.8 8.4-6.3 0-3-1.6-4.3-5-4.3M48.7 8c1 0 1.8.8 1.8 3.4 0 2.8-.7 3.3-1.8 3.3-1 0-1.8-.5-1.8-3.3S47.5 8 48.6 8m0 18.6c-2.7 0-3.7-1-3.7-2.1 0-.7.4-1.7 1.7-1.7h4.2c1.2 0 2 .8 2 1.6 0 1.5-1.1 2.2-4.2 2.2m-7.4-12c0-6.2-2.8-8.3-6.6-8.3-4.4 0-7.3 2.9-7.3 7.8 0 5 2.6 7.9 7.7 7.9 2.7 0 4.9-1.5 5.6-2.4v-1.2c-1 .3-2 .5-4 .5-2.7 0-4.3-1.4-4.3-4.3h8.9zM34.5 8c1.2 0 1.9.9 1.9 4.6l-4.1.2c0-3.8.9-4.8 2.2-4.8M11.2 21.6h8v-1.4l-1.5-.7V9.9c.6-.4 1.3-.6 2-.6 1.4 0 2 .8 2 2.1v8l-1.5.8v1.4h8v-1.4l-1.5-.7v-9.2c0-2.7-1.6-4-3.8-4-2 0-4 .8-5.3 2V0h-.4l-6.1 1v1.3l1.7.8v16.4l-1.6.7v1.4zm-9-4c0 2.6 1.4 4.4 4.3 4.4 1.6 0 3.2-.4 4.1-1.1V19a6 6 0 01-1.6.3c-1.4 0-1.8-.8-1.8-2.2V9.3h3.3V6.7H7.2V3.2l-5 .7v2.8L0 7.1v2.2h2.3v8.2z" />
        <g transform="translate(0,-4)">
            <path
                d="M36 67.4c-.3 0-.7-.2-1-.5l-.4-.2c-.7-.6-1.6-1.3-1.2-2.8l4.3-13.6c-.4.7-6.6 6-11.7 9-.4.2-2 1.1-2.7 1-3.4-1-2.2-4.4-1.3-5.2l.7-.3c1.7-.8 6.6-3.3 11.9-8.2A77.4 77.4 0 0044 35c.3-.5.9-1.8 2.1-1.7l.8.2c1.6.8 2.3 2 1.8 3.4-.4 1-.9 1.8-1.4 2.6l-1 1.9a187.4 187.4 0 00-5 12.1l-.3.9.2-.2c.9-1.2 3.6-5.2 6.7-9.3a134 134 0 019.8-12c1.4-.8 3.2.7 3.7 1.6.4 1 .5 2 .2 2.8l-4.3 11.4-1.1 3.2-.6 1.5.7-.5 6.9-7.3L75.1 33c.6-.7 1.3-1 2-1l1 .3c.7.5 2 1.3 1.5 3a3820.2 3820.2 0 01-6.4 21.1c-.2.6-.3 1.8.2 2.7 1.4-.4 7.3-4.2 7.3-4.2s-.1-.8 0-2.7c.4-5.8 3-10.4 5.5-13.6 2.5-2.8 5.8-4.9 7.9-4.7 1.8 0 3.6 1.6 3.4 3.9-.1 1.8-.7 3.8-1.7 5.9A38.9 38.9 0 0186 56.8s.2.6 1 .7c1.5 0 2.9-.5 4-1a41.2 41.2 0 0016.8-19.2l.9-2.1c.3-.7.8-2 2.1-1.8.3 0 .6 0 .9.2a3 3 0 011.7 1.8c.2.7 0 1.6-.4 2.4L107.6 50c-.1.5 0 1 .1 1 .2 0 6.7-7.4 9.9-11 0 0 5.2-5.6 5.4-6 .6-.7 2-1.7 3.3-1 1.2.8 1.7 3 1.3 4.1L124 47.2l-1.1 3.3.9-1c4.8-6.6 15.4-16.9 18-16.7 1 .1 1.8 1.1 2.5 2.2.3.5.6 1.2 0 2.2A121 121 0 00137 56l-.2.9s8.8-6.8 11.7-10.4c5.2-6.2 13.2-26 13.6-26.7.7-1.4 2-2.3 3.6-2.1 1.5.1 2 1.2 2 2.1.1 3.3-11.2 23.2-11.1 23.4.5-.5 8.8-7.6 13.4-6.2 2 .6 2.1 2 2.5 3.8.7 3.4-3.5 23.6-19 24.3-2 0-4.7-1.4-5.7-4.2 0 0-.5.3-.9.1-.8-.4-1.4-1-1.6-1.5-.2-.5 0-1 .1-1.8.3-1.1 4.2-5.6-.7-1-4.2 4-8.5 6.8-9.1 7.3-.6.4-1.4 1-2.2.8-.8 0-1.8-.6-2.3-1.3-.9-1-.5-2.4.3-4 .5-1.2 1.3-4.7 1.5-5.3l1.2-3.5a1415.5 1415.5 0 003-9.5l-6 6.5-10.4 12.7c-.5.6-1.1.9-1.8.8-.7 0-1.2-.3-1.7-.6-1.2-.6-1.6-1.6-1.1-2.8.6-1.6 1-3.2 1.3-4.8l.8-3 1.3-4 .7-1.9.2-.7c-.2.3-12.7 15-14.6 16.6-.4.4-1.2.9-1.9.8-.3 0-1.7-.8-2.7-1.7-.5-.6-.8-1 .3-2.9.2-.4.6-1.2.6-1.6l-.1-.4c-.2 0-4.5 5-10.4 7.4-1.5.7-3 1-4.4.8-3.3-.3-5.1-2.5-5.1-2.5s-7.3 5.2-11.9 6c-1 .2-2.2-.4-2.8-1.3-.6-.8 0-4.1.5-6.5.9-3.7 3-10.3 3.5-11.4l1.4-4v-.1l-.5.1A813.9 813.9 0 0054 63c-.5.6-1.2 1-1.9.9-1.5-.4-2.6-2-2.5-3 .3-2 .7-4.3 1.4-7l3-9.7V44l-.2.1C52.6 46 42.2 60.7 39.6 64.3c-.6 1-1.2 1.7-1.8 2.3-.6.6-1.1.8-1.7.8m56.3-27.9c-2.8 1-6.4 6.2-7.6 12.4 2.3-2.4 7.4-10 7.6-12.4M154 59.7c12.1-1.6 17.6-21 11-17.2a32.7 32.7 0 00-12.6 15.3c-.4 1-.3 2.5 1.6 2" />
            <path
                d="M221.7 66.6c-2.2-.2-4-1.3-5-3a7.3 7.3 0 01-.8-6.3c.5-1.5 2-2.5 3.8-3.3l5.8-2.8.9-2.1 2.2-6.1s-2 1-5.3 2.2a75.6 75.6 0 01-10.9 2.6c-2 .3-2.8 1-3.5 1.8-2 2.4-4.4 5.6-6.5 8.4-.6.7-1.4 1.7-2.7 1.6a4 4 0 01-2.2-1.2c-.4-.6-.6-1.1 0-2.6l3-5.3v-.2C198.6 52 188 62 181.7 61.5c-5.7-.4-6.4-7.3-6.4-7.3l-1.6.3c-.6 0-1.3-.7-1.9-2-.3-.8-1-2.5-.2-2.7l3.7-.9c1-6 4-10.1 5-11.4 3-3.4 6.2-4.4 7.1-4.5 3.9-.5 5.6 2 5.6 4.2.1 3.4-1.4 6.2-2.6 8-3.8 5.6-10 7.5-10 7.5s0 3.2 2 3.3c4.6.4 16.5-10 21-15.6l6.1-7.8c.3-.3.8-.4 1.6 0 .8.3 3.1 1.8 2 3.5l-4.1 7.2c.6-.5 1.3-.9 2.7-1 8.7-.7 16.3-3.8 19-7.4 1.3-1.8 3.5-3.7 5.4-2.2 1.8 1.4 2.1 3.3 1.5 4.5-.4.7-1.5 1.8-3 2.7l-3.1 8.6s15.2-7.7 17.7-8.7c.8-.3 2.5 0 3.5 1.4.5.8.4 1.6-.4 2-4.4 2-23.2 11.7-23.2 11.7s-2.9 7.8-4.2 10a3.8 3.8 0 01-3.3 1.7zm1.5-8.9c-1.6.8-2.6 1.5-2.7 2.1-.1.4.2 1 .6 1.3.7.5 1.8-2.1 2.1-3.4m-39.7-16.2a20.5 20.5 0 00-2.2 5.5c4.4-2.4 7.4-6.1 7-9.4h-.1c-.8 0-3.4 1.6-4.7 4" />
        </g>
    </g>
</svg>