<svg x="0px" y="0px" width="120.9px" height="63.9px" viewBox="0 0 120.9 63.9" style="fill:#000000">
<g>
				<path  d="M16.7,12.9l1.3-0.7V2.1h-1l-2.4,3.1h-0.3l0.1-3.5h10.3L25,5.3h-0.3l-2.3-3.1h-1v10l1.3,0.7v0.3h-5.9V12.9z"
					/>
				<path  d="M26,12.4V1.3l-1-0.4V0.6L28.6,0h0.4v5.3L29,5.2c0.8-0.7,1.9-1.1,3.1-1.1c1.6,0,2.3,0.9,2.3,2.5v5.8l0.8,0.5
					l0,0.3h-4.7v-0.3l0.8-0.5V6.6c0-0.9-0.4-1.3-1.1-1.3c-0.5,0-0.9,0.2-1.2,0.4v6.7l0.8,0.5v0.3h-4.7v-0.3L26,12.4z"/>
				<path  d="M37.8,9c0.1,1.8,0.9,3.3,2.9,3.3c0.9,0,1.6-0.4,2.3-0.8v0.4c-0.5,0.7-1.7,1.6-3.5,1.6c-3,0-4.6-1.7-4.6-4.6
					c0-2.9,1.7-4.6,4.4-4.6c2.6,0,3.9,1.3,3.9,4.7V9H37.8z M37.8,8.6l2.7-0.2c0-2.3-0.4-3.8-1.2-3.8C38.4,4.6,37.8,6.4,37.8,8.6z"/>
				<path  d="M0,17.7c0-4.9,3.2-6.6,6.8-6.6c1.5,0,3,0.2,3.8,0.6l0.1,3.4h-0.3l-2.1-3.3c-0.4-0.2-0.7-0.2-1.3-0.2
					c-1.9,0-2.9,2.2-2.8,5.8c0,4.3,0.8,6.3,2.5,6.3c0.5,0,0.8-0.1,1-0.2v-4.6l-1.2-0.7v-0.4H12v0.4l-1.1,0.6v4.6
					c-0.9,0.4-2.5,0.7-4.2,0.7C2.6,24.1,0,22.2,0,17.7z"/>
				<path  d="M11.5,15.4v-0.3l3.7-0.7l0.4,0v7.4c0,0.9,0.4,1.2,1.1,1.2c0.5,0,0.9-0.2,1.2-0.6v-6.6l-1-0.4v-0.3l3.7-0.7
					l0.4,0v8.5l1,0.4v0.3l-3.7,0.5l-0.4,0v-1.1H18c-0.7,0.6-1.6,1.2-2.8,1.2c-1.8,0-2.6-1.1-2.6-2.7v-5.6L11.5,15.4z"/>
				<path  d="M35,14.4l0.3,0l0,2.7h0.1c0.4-2,1.3-2.8,2.4-2.8c0.2,0,0.4,0,0.5,0.1v2.8c-0.2-0.1-0.5-0.1-0.8-0.1
					c-0.9,0-1.5,0.2-2,0.4l0,5.4l0.9,0.5l0,0.4h-4.9v-0.3l0.9-0.5v-7.4l-1-0.3v-0.3L35,14.4z"/>
				<path  d="M44.4,14.7v-2.9l-1-0.4v-0.2l3.8-0.7l0.4,0.1v12.4l1,0.4v0.3l-3.7,0.5l-0.3,0v-1h-0.1c-0.5,0.5-1.3,1-2.5,1
					c-2,0-3.5-1.6-3.5-4.7c0-3.4,1.7-5,4.3-5C43.6,14.4,44.1,14.5,44.4,14.7z M44.4,22.6v-7.4c-0.2-0.2-0.4-0.3-1-0.3
					c-1,0-1.6,1.6-1.6,4.3c0,2.4,0.4,3.8,1.8,3.8C43.9,22.9,44.2,22.8,44.4,22.6z"/>
				<path  d="M52.7,14.4l0.3,0v8.6l0.9,0.5l0,0.4H49v-0.3l0.9-0.5v-7.2l-1-0.4v-0.3L52.7,14.4z M53,12.1
					c0,0.9-0.8,1.6-1.7,1.6c-0.9,0-1.6-0.7-1.6-1.6c0-0.9,0.7-1.6,1.6-1.6C52.2,10.5,53,11.2,53,12.1z"/>
				<path  d="M63.9,23.1v-7.3l-1-0.4V15l3.7-0.7l0.4,0v1.1h0.1c0.8-0.7,2-1.2,3.2-1.2c1.6,0,2.3,0.8,2.3,2.5V23l0.9,0.5
					l0,0.4h-4.9v-0.3l0.9-0.5v-6.1c0-0.9-0.4-1.3-1.2-1.3c-0.5,0-0.9,0.1-1.3,0.4v7l0.9,0.5v0.4h-4.9v-0.3L63.9,23.1z"/>
				<path  d="M58.6,18.5v-1.2c0-1.9-0.4-2.5-1.5-2.5c-0.1,0-0.3,0-0.4,0l-2,2.8h-0.3V15c0.9-0.3,2-0.6,3.4-0.6
					c2.5,0,3.9,0.7,3.9,2.8v6l0.9,0.2v0.2c-0.4,0.2-1.1,0.4-1.8,0.4c-1.2,0-1.8-0.4-2.1-1.1h-0.1c-0.5,0.7-1.3,1.1-2.4,1.1
					c-1.5,0-2.5-0.9-2.5-2.5c0-1.5,1-2.4,2.9-2.8L58.6,18.5z M58.6,22.6v-3.7L58,18.9c-1,0.1-1.3,0.7-1.3,2.1c0,1.5,0.5,1.9,1.2,1.9
					C58.3,22.9,58.5,22.8,58.6,22.6z"/>
				<path  d="M27.1,18.5v-1.2c0-1.9-0.4-2.5-1.5-2.5c-0.1,0-0.3,0-0.4,0l-2,2.8h-0.3V15c0.9-0.3,2-0.6,3.4-0.6
					c2.5,0,3.9,0.7,3.9,2.8v6l0.9,0.2v0.2c-0.4,0.2-1.1,0.4-1.8,0.4c-1.2,0-1.8-0.4-2.1-1.1h-0.1c-0.5,0.7-1.3,1.1-2.4,1.1
					c-1.5,0-2.5-0.9-2.5-2.5c0-1.5,1-2.4,2.9-2.8L27.1,18.5z M27.1,22.6v-3.7l-0.6,0.1c-1,0.1-1.3,0.7-1.3,2.1
					c0,1.5,0.5,1.9,1.2,1.9C26.7,22.9,26.9,22.8,27.1,22.6z"/>
			</g>
<g>
	<path  d="M7.1,38.3l1.5-0.9V26.9l-1.5-0.4v-0.3h5.1l2.9,8.9h0.1l2.6-8.9h4.7v0.3l-1.2,0.3v11.3l1.2,0.3v0.3h-5.7v-0.3
		l1-0.2V27.6h-0.1l-3.2,11h-1.8L9,27.6H8.9v9.8l1.6,0.8v0.3H7.1V38.3z"/>
	<path  d="M27.5,33.1v-1.3c0-1.9-0.4-2.5-1.5-2.5c-0.1,0-0.2,0-0.3,0l-2.3,3.1h-0.3l0.1-2.9c0.9-0.3,2-0.6,3.5-0.6
		c2.5,0,4,0.7,4,2.8v6.1l0.9,0.2v0.2c-0.4,0.2-1.1,0.4-1.9,0.4c-1.3,0-1.9-0.4-2.1-1.1h-0.1c-0.5,0.7-1.3,1.1-2.5,1.1
		c-1.5,0-2.5-0.9-2.5-2.6c0-1.6,1-2.4,3-2.8L27.5,33.1z M27.5,37.3v-3.8l-0.6,0.1c-1,0.1-1.4,0.7-1.4,2.1c0,1.5,0.5,1.9,1.2,1.9
		C27.1,37.6,27.4,37.5,27.5,37.3z"/>
	<path  d="M39.1,35.7c0,1.9-1.4,3.1-3.9,3.1c-1.1,0-2.3-0.1-3.2-0.5l-0.1-2.8h0.3l2.5,2.9c0.2,0.1,0.4,0.1,0.5,0.1
		c1,0,1.5-0.6,1.5-1.4c0-0.8-0.4-1.1-1.5-1.6l-0.6-0.3c-1.7-0.8-2.7-1.6-2.7-3.2c0-1.9,1.3-3.1,3.6-3.1c0.9,0,2,0.1,2.8,0.3l0.1,2.6
		h-0.3l-1.9-2.5c-0.2-0.1-0.4-0.1-0.6-0.1c-0.9,0-1.3,0.5-1.3,1.3c0,0.8,0.4,1.1,1.5,1.6l0.5,0.2C38.2,33.3,39.1,34,39.1,35.7z"/>
	<path  d="M39.3,29.8v-0.3l1.3-0.3v-1.7l3.1-0.5v2.2h2.1v0.7h-2.1v6.3c0,1,0.3,1.4,1.3,1.4c0.3,0,0.7,0,0.9-0.1v0.3
		c-0.5,0.6-1.5,1.1-2.6,1.1c-1.8,0-2.7-0.8-2.7-2.9v-6.1H39.3z"/>
	<path  d="M49.2,33.6c0.1,2.3,0.9,3.7,3.3,3.7c0.8,0,1.5-0.1,2.1-0.4v0.3c-0.5,0.8-1.8,1.6-3.7,1.6c-3.2,0-4.8-1.9-4.8-5
		c0-3,1.8-4.9,4.7-4.9c2.9,0,4.1,1.5,4.1,4.3v0.2H49.2z M49.2,33.2l2.7-0.1c0-3-0.4-3.8-1.2-3.8C49.7,29.3,49.2,30.5,49.2,33.2z"/>
	<path  d="M58.7,29l0.3,0v2.7h0.1c0.5-2,1.3-2.8,2.3-2.8c0.2,0,0.4,0,0.5,0.1v2.8c-0.2-0.1-0.5-0.1-0.8-0.1
		c-0.9,0-1.5,0.1-2,0.3v6l1.3,0.3v0.3H55v-0.3l1-0.3v-7.8l-1-0.4v-0.3L58.7,29z"/>
	<path  d="M62.3,33.9c0-3,1.9-4.9,5-4.9c1.2,0,2.3,0.1,3,0.3l0.1,3.2H70l-2.3-3.1c-0.1,0-0.1,0-0.2,0
		c-1.3,0-2.1,1.4-2.1,4c0,2.7,0.9,4,3,4c0.8,0,1.4-0.1,1.9-0.4v0.3c-0.6,0.8-1.7,1.6-3.5,1.6C63.8,38.8,62.3,36.8,62.3,33.9z"/>
	<path  d="M74.4,25l0.4,0.1v13l1,0.3v0.3h-5.1v-0.3l1-0.3V26.3l-1-0.4v-0.3L74.4,25z"/>
	<path  d="M80.9,33.1v-1.3c0-1.9-0.4-2.5-1.5-2.5c-0.1,0-0.2,0-0.3,0l-2.3,3.1h-0.3l0.1-2.9c0.9-0.3,2-0.6,3.5-0.6
		c2.5,0,4,0.7,4,2.8v6.1l0.9,0.2v0.2c-0.4,0.2-1.1,0.4-1.9,0.4c-1.3,0-1.9-0.4-2.1-1.1h-0.1c-0.5,0.7-1.3,1.1-2.5,1.1
		c-1.5,0-2.5-0.9-2.5-2.6c0-1.6,1-2.4,3-2.8L80.9,33.1z M80.9,37.3v-3.8l-0.6,0.1c-1,0.1-1.4,0.7-1.4,2.1c0,1.5,0.5,1.9,1.2,1.9
		C80.5,37.6,80.7,37.5,80.9,37.3z"/>
	<path  d="M92.6,35.7c0,1.9-1.4,3.1-3.9,3.1c-1.1,0-2.3-0.1-3.2-0.5l-0.1-2.8h0.3l2.5,2.9c0.2,0.1,0.4,0.1,0.5,0.1
		c1,0,1.5-0.6,1.5-1.4c0-0.8-0.4-1.1-1.5-1.6l-0.6-0.3c-1.7-0.8-2.7-1.6-2.7-3.2c0-1.9,1.3-3.1,3.6-3.1c0.9,0,2,0.1,2.8,0.3l0.1,2.6
		h-0.3l-1.9-2.5c-0.2-0.1-0.4-0.1-0.6-0.1c-0.9,0-1.3,0.5-1.3,1.3c0,0.8,0.4,1.1,1.5,1.6l0.5,0.2C91.7,33.3,92.6,34,92.6,35.7z"/>
	<path  d="M100.1,35.7c0,1.9-1.4,3.1-3.9,3.1c-1.1,0-2.3-0.1-3.2-0.5L93,35.6h0.3l2.5,2.9c0.2,0.1,0.4,0.1,0.5,0.1
		c1,0,1.5-0.6,1.5-1.4c0-0.8-0.4-1.1-1.5-1.6l-0.6-0.3C94,34.4,93,33.6,93,32c0-1.9,1.3-3.1,3.6-3.1c0.9,0,2,0.1,2.8,0.3l0.1,2.6
		h-0.3l-1.9-2.5c-0.2-0.1-0.4-0.1-0.6-0.1c-0.9,0-1.3,0.5-1.3,1.3c0,0.8,0.4,1.1,1.5,1.6l0.5,0.2C99.2,33.3,100.1,34,100.1,35.7z"/>
	<path  d="M103.6,33.6c0.1,2.3,0.9,3.7,3.3,3.7c0.8,0,1.5-0.1,2.1-0.4v0.3c-0.5,0.8-1.8,1.6-3.7,1.6
		c-3.2,0-4.8-1.9-4.8-5c0-3,1.8-4.9,4.7-4.9c2.9,0,4.1,1.5,4.1,4.3v0.2H103.6z M103.6,33.2l2.7-0.1c0-3-0.4-3.8-1.2-3.8
		C104.2,29.3,103.6,30.5,103.6,33.2z"/>
	<path  d="M116.9,35.7c0,1.9-1.4,3.1-3.9,3.1c-1.1,0-2.3-0.1-3.2-0.5l-0.1-2.8h0.3l2.5,2.9c0.2,0.1,0.4,0.1,0.5,0.1
		c1,0,1.5-0.6,1.5-1.4c0-0.8-0.4-1.1-1.5-1.6l-0.6-0.3c-1.7-0.8-2.7-1.6-2.7-3.2c0-1.9,1.3-3.1,3.6-3.1c0.9,0,2,0.1,2.8,0.3l0.1,2.6
		h-0.3l-1.9-2.5c-0.2-0.1-0.4-0.1-0.6-0.1c-0.9,0-1.3,0.5-1.3,1.3c0,0.8,0.4,1.1,1.5,1.6l0.5,0.2C115.9,33.3,116.9,34,116.9,35.7z"
		/>
</g>
</svg>
