<svg width="590" height="62" viewBox="0 0 590 62"><path d="M5.7 20.6H.8v-4.8l4.9-.7V9l10.7-1.5V15h7v5.5h-7v16.9c0 3.2.9 4.8 4 4.8 1.1 0 2.6-.1 3.4-.2v4.1c-1.8 1-5.4 1.9-8.7 1.9-6.4 0-9.4-2.8-9.4-9.6V20.6zM24.4 44.3l3.5-1.6V7.1l-3.7-1.7V2.7L37.5.6h.9v17.9h.3c2.9-2.6 6.8-4.2 11.1-4.2 5.3 0 8 2.6 8 8.6v19.9l3.5 1.6v2.9H43.8v-2.9l3.4-1.6V25.2c0-3.3-1.4-4.5-4.3-4.5-1.6 0-3 .3-4.4.9v21.1l3.4 1.6v2.9H24.4v-2.9zM73.6 32.1c.5 6.3 3.5 9.2 9.4 9.2 4.1 0 6.4-.4 8.6-1.1v3.1c-1.5 2.1-6.3 4.7-12.2 4.7-11 0-16.7-6.1-16.7-17 0-10.6 6.3-16.8 15.8-16.8 9.6 0 14.3 4.3 14.3 17.8H73.6zm-.1-3.8l8.9-.5c0-8.6-1.4-9.9-4.1-9.9-2.9-.1-4.7 1.8-4.8 10.4zM126.2 49.4c0 7.6-5.5 12.5-18 12.5-10.1 0-16.3-3.2-16.3-7.5 0-4.2 4.1-5.4 7.7-6.1V48c-3.4-.7-5.1-3.2-5.1-5.7 0-3.4 3.6-6.1 5.4-7.4v-.3c-3.2-1.8-5.3-4.9-5.3-9.2 0-6.9 5.7-11.1 14-11.1 2.6 0 5.4.8 7.4 1.6h.5l8.2-1.6h.6v6.4h-.7l-5.3-1.9v.2c2 1.8 3.3 3.6 3.3 6.8 0 7-5.7 10.7-14 10.7-2.1 0-3.6-.1-5.3-.6-.8.6-1.4 1.5-1.4 2.4 0 1.1 1 2.1 2.3 2.1h11.5c6.9-.2 10.5 2.7 10.5 9zm-9.3 3c0-1.7-1.2-2.5-3.8-2.5h-11.3c-.9 1-1.3 2.1-1.3 3.6 0 2.2 2 4.3 7.9 4.3 6.7.1 8.5-2.1 8.5-5.4zm-12.2-27.1c0 6.5 1.5 7.1 3.8 7.1s3.8-.7 3.8-7.1c0-6.4-1.5-7.4-3.8-7.4s-3.8.8-3.8 7.4zM129.5 21l-3.6-1.7v-2.9l13.4-2.1h.9V37c0 3.7 1.8 4.3 4.5 4.3 1.8 0 2.8-.3 3.8-.7V21l-3.6-1.7v-2.9l13.4-2.1h.9v27.5l3.6 1.9v2.8l-13 1.4h-.8v-4.2h-.4c-2.1 2.5-5.5 4.4-9.8 4.4-6.5 0-9.2-4.7-9.2-10.2V21zM171.2 25.1h-5v-8.4c3-1 6.7-2.5 12.3-2.5 8.6 0 13.8 2.5 13.8 9.8v18.7l3.4 1.6v2.4c-1 .6-3.4 1.3-6 1.3-3.3 0-6.3-1.1-6.8-4.5h-.3c-1.4 2.9-5.2 4.6-9.2 4.6-5.7 0-9.2-3.7-9.2-9 0-6.6 4.2-7.9 11.4-9.1l6.1-1v-4.3c0-4.1-1.2-6.1-5.3-6.1-.5 0-2.1.1-2.8.1l-2.4 6.4zm10.3 7.3l-2.5.2c-2.5.2-4.5 1.9-4.5 4.9 0 3.6 2 4.7 4 4.7 1.1 0 2.4-.6 2.9-1.2v-8.6zM209 14.1h.9v6.8h.3c1.9-4.2 4.8-6.5 8.3-6.5.6 0 1.3.1 1.6.2V24c-.6-.2-1.8-.3-2.7-.3-2.9 0-5.3.3-7.1 1.1v17.9l4.4 1.6v3h-18.5v-3l3.4-1.6V20.9l-3.6-1.7v-2.9l13-2.2zM241.3 7.8l-3.6-1.6V3.3l13.4-2.1h.9v40.7l3.4 1.9v2.8L242.7 48h-.9v-3.3h-.3c-1.3 1.7-4.1 3.5-8.1 3.5-5.9 0-12.9-3.7-12.9-16.1 0-13 7.2-17.6 15.7-17.6 1.8 0 3.8.4 5.2 1.3v-8zm0 12.2c-.8-.6-1.7-1.1-3.6-1.1-3.4 0-5.9 3-5.9 12.1 0 7.9 2 11.4 6.3 11.4 1.6 0 2.5-.3 3.3-.6V20zM269.3 14.1h.9v28.5l3.4 1.6v3H256v-3l3.4-1.6V20.9l-3.6-1.7v-2.9l13.5-2.2zm1-7.5c0 3.1-2.6 5.6-5.7 5.6-3.2 0-5.7-2.5-5.7-5.6 0-3.2 2.5-5.7 5.7-5.7 3.1 0 5.7 2.6 5.7 5.7zM282 25.1h-5v-8.4c3-1 6.7-2.5 12.3-2.5 8.6 0 13.8 2.5 13.8 9.8v18.7l3.4 1.6v2.4c-1 .6-3.4 1.3-6 1.3-3.3 0-6.3-1.1-6.8-4.5h-.3c-1.4 2.9-5.2 4.6-9.2 4.6-5.7 0-9.2-3.7-9.2-9 0-6.6 4.2-7.9 11.4-9.1l6.1-1v-4.3c0-4.1-1.2-6.1-5.3-6.1-.5 0-2.1.1-2.8.1l-2.4 6.4zm10.3 7.3l-2.5.2c-2.5.2-4.5 1.9-4.5 4.9 0 3.6 2 4.7 4 4.7 1.1 0 2.4-.6 2.9-1.2v-8.6zM307.1 44.3l3.5-1.6V20.9l-3.7-1.7v-2.8l13.3-2.1h.9v4.2h.3c2.9-2.6 6.8-4.2 11.1-4.2 5.3 0 8 2.6 8 8.6v19.9l3.5 1.6v2.9h-17.6v-2.9l3.4-1.6V25.2c0-3.3-1.4-4.5-4.3-4.5-1.6 0-3 .3-4.4.9v21.1l3.4 1.6v2.9h-17.6v-2.9z" style="fill:black"/><g fill="#315754"><path d="M347.4 44.4l3.6-1.6V6.5l-3.7-1.7V2l13.6-2.2h.9V18h.4c2.9-2.7 6.9-4.3 11.3-4.3 5.4 0 8.2 2.7 8.2 8.7v20.2l3.6 1.6v3h-17.9v-3l3.4-1.6V25c0-3.4-1.4-4.6-4.4-4.6-1.6 0-3.1.4-4.4.9v21.5l3.4 1.6v3h-17.9v-3zM419.8 31c0 11.1-6.8 17.2-16.8 17.2-9.9 0-16.8-6.1-16.8-17.2S393 13.8 403 13.8s16.8 6.1 16.8 17.2zm-11.4 0c0-10.8-1.7-12.7-5.3-12.7-3.6 0-5.4 1.9-5.4 12.7s1.8 12.7 5.4 12.7c3.6-.1 5.3-1.9 5.3-12.7zM434.9.4h.9v42.2l3.5 1.6v3h-17.9v-3l3.5-1.6V7.3l-3.7-1.7v-3L434.9.4zM454 13.7h.9v29l3.5 1.6v3h-17.9v-3l3.5-1.6V20.5l-3.7-1.7v-3l13.7-2.1zm1.1-7.7c0 3.2-2.6 5.7-5.8 5.7-3.2 0-5.8-2.6-5.8-5.7 0-3.2 2.6-5.8 5.8-5.8 3.2 0 5.8 2.6 5.8 5.8zM480.9 7.3l-3.6-1.6v-3L490.9.5h.9v41.4l3.4 1.9v2.8L482.3 48h-.9v-3.4h-.4c-1.3 1.8-4.1 3.6-8.2 3.6-6 0-13.1-3.8-13.1-16.4 0-13.2 7.3-17.9 16-17.9 1.8 0 3.9.4 5.3 1.3V7.3zm0 12.3c-.8-.6-1.8-1.2-3.7-1.2-3.4 0-6 3.1-6 12.3 0 8.1 2 11.6 6.4 11.6 1.6 0 2.6-.3 3.3-.6V19.6zM503.3 24.8h-5.1v-8.5c3.1-1 6.8-2.5 12.5-2.5 8.8 0 14 2.6 14 9.9v19l3.4 1.6v2.5c-1.1.6-3.5 1.3-6.1 1.3-3.4 0-6.4-1.1-7-4.6h-.3c-1.5 2.9-5.3 4.7-9.4 4.7-5.8 0-9.4-3.7-9.4-9.2 0-6.7 4.3-8.1 11.6-9.3l6.3-1.1v-4.4c0-4.1-1.2-6.3-5.4-6.3-.5 0-2.1.1-2.8.1l-2.3 6.8zm10.6 7.4l-2.5.2c-2.5.2-4.6 1.9-4.6 5 0 3.6 2 4.8 4.1 4.8 1.2 0 2.4-.6 3-1.2v-8.8zM542.3 51.5l.5-1.2-13.2-31-3-1.6v-3h18.8v3l-3.5 1.5 6.1 17.1h.2l5.6-17.1-3.5-1.5v-3H563v3l-3.3 1.6-12.2 33.3c-2.6 7.2-6.3 9.6-11.6 9.6-2.2 0-4-.7-5.5-1.7v-3.9c1.3.3 3 .4 4.1.4 3.7 0 6.2-1.6 7.8-5.5zM563.1 46.1v-8.6h4.6l1.9 5.4c.8.7 3.4 1.1 5.3 1.1 3.1 0 5.3-.7 5.3-3.3 0-2.4-.8-3.4-4.3-4.1l-4-.9c-6-1.3-8.8-6.1-8.8-11 0-6.3 4.3-10.9 13.9-10.9 3.9 0 7.8.6 10.3 1.7v8.1h-4.6l-1.4-4.5c-.8-.4-3-.8-4.8-.8-2.6 0-4.3 1.2-4.3 3.2 0 1.9.9 3.1 4.5 3.9l3.9.8c6.3 1.3 8.7 5.6 8.7 10.5 0 6.8-4.3 11.5-14.7 11.5-3.6-.1-8.3-.8-11.5-2.1z"/></g></svg>
