<svg width="680" height="62" viewBox="0 0 680 62"><path d="M4.9 20H0v-4.8l4.9-.7v-6L15.6 7v7.5h7V20h-7v16.9c0 3.2.9 4.8 4 4.8 1.1 0 2.6-.1 3.4-.2v4.1c-1.8 1-5.4 1.9-8.7 1.9-6.4 0-9.4-2.8-9.4-9.6V20zM23.6 43.7l3.5-1.6V6.6l-3.7-1.7V2.1L36.7 0h.9v17.9h.3c2.9-2.6 6.8-4.2 11.1-4.2 5.3 0 8 2.6 8 8.5v19.9l3.5 1.6v2.9H43v-2.9l3.4-1.6V24.7c0-3.3-1.4-4.5-4.3-4.5-1.6 0-3 .3-4.4.9v21.1l3.4 1.6v2.9H23.6v-3zM72.8 31.6c.5 6.3 3.5 9.2 9.4 9.2 4.1 0 6.4-.4 8.6-1.1v3.1c-1.5 2.1-6.3 4.7-12.2 4.7-11 0-16.7-6.1-16.7-17 0-10.6 6.3-16.8 15.8-16.8C87.3 13.7 92 18 92 31.5H72.8zm-.2-3.9l8.9-.5c0-8.5-1.4-9.9-4.1-9.9-2.9 0-4.6 1.9-4.8 10.4zM125.3 48.8c0 7.6-5.5 12.4-18 12.4C97.2 61.2 91 58 91 53.7c0-4.2 4.1-5.4 7.7-6.1v-.3c-3.4-.7-5.1-3.2-5.1-5.7 0-3.4 3.6-6.1 5.4-7.3V34c-3.2-1.8-5.3-4.9-5.3-9.2 0-6.9 5.7-11.1 14-11.1 2.6 0 5.4.8 7.4 1.5h.5l8.2-1.6h.6V20h-.7l-5.3-1.9v.2c2 1.8 3.3 3.6 3.3 6.8 0 7-5.7 10.7-13.9 10.7-2.1 0-3.6-.1-5.3-.6-.8.6-1.4 1.5-1.4 2.4 0 1.1 1 2.1 2.3 2.1h11.5c6.9-.1 10.4 2.8 10.4 9.1zm-9.3 3c0-1.7-1.2-2.5-3.8-2.5H101c-.9 1-1.3 2.1-1.3 3.6 0 2.2 2 4.3 7.9 4.3 6.6.1 8.4-2.1 8.4-5.4zm-12.2-27.1c0 6.5 1.5 7.1 3.8 7.1s3.8-.7 3.8-7.1c0-6.4-1.5-7.4-3.8-7.4s-3.8.9-3.8 7.4zM128.6 20.5l-3.6-1.7v-2.9l13.4-2.1h.9v22.7c0 3.7 1.8 4.3 4.5 4.3 1.8 0 2.8-.3 3.8-.7V20.5l-3.6-1.7v-2.9l13.4-2.1h.9v27.5l3.6 1.9V46l-13 1.4h-.9v-4.2h-.4c-2.1 2.5-5.5 4.4-9.8 4.4-6.5 0-9.2-4.6-9.2-10.2V20.5zM170.2 24.6h-5v-8.4c3-1 6.7-2.5 12.3-2.5 8.6 0 13.8 2.5 13.8 9.8v18.6l3.4 1.6v2.4c-1 .6-3.4 1.3-6 1.3-3.3 0-6.3-1.1-6.8-4.5h-.3c-1.4 2.9-5.2 4.6-9.2 4.6-5.7 0-9.2-3.7-9.2-9 0-6.6 4.2-7.9 11.4-9.1l6.1-1V24c0-4.1-1.2-6.1-5.3-6.1-.5 0-2.1.1-2.8.1l-2.4 6.6zm10.4 7.2l-2.5.2c-2.5.2-4.5 1.9-4.5 4.9 0 3.6 2 4.7 4 4.7 1.1 0 2.4-.6 2.9-1.2v-8.6zM208.1 13.6h.9v6.8h.3c1.9-4.2 4.8-6.5 8.3-6.5.6 0 1.3.1 1.6.2v9.4c-.6-.2-1.8-.3-2.7-.3-2.9 0-5.3.3-7.1 1.1v17.8l4.4 1.6v3h-18.5v-3l3.4-1.6V20.3l-3.6-1.7v-2.9l13-2.1zM240.3 7.3l-3.6-1.6V2.8L250.1.7h.9v40.6l3.4 1.9V46l-12.7 1.4h-.9V44h-.3c-1.3 1.7-4.1 3.5-8.1 3.5-5.9 0-12.9-3.7-12.9-16.1 0-13 7.2-17.6 15.7-17.6 1.8 0 3.8.4 5.2 1.3V7.3zm0 12.1c-.8-.6-1.7-1.1-3.6-1.1-3.4 0-5.9 3-5.9 12.1 0 7.9 2 11.4 6.3 11.4 1.6 0 2.5-.3 3.3-.6V19.4zM268.2 13.6h.9v28.5l3.4 1.6v3H255v-3l3.4-1.6V20.3l-3.6-1.7v-2.9l13.4-2.1zm1.1-7.5c0 3.1-2.6 5.6-5.7 5.6-3.2 0-5.7-2.5-5.7-5.6 0-3.2 2.5-5.7 5.7-5.7 3.1 0 5.7 2.5 5.7 5.7zM280.9 24.6h-5v-8.4c3-1 6.7-2.5 12.3-2.5 8.6 0 13.8 2.5 13.8 9.8v18.6l3.4 1.6v2.4c-1 .6-3.4 1.3-6 1.3-3.3 0-6.3-1.1-6.8-4.5h-.3c-1.4 2.9-5.2 4.6-9.2 4.6-5.7 0-9.2-3.7-9.2-9 0-6.6 4.2-7.9 11.4-9.1l6.1-1V24c0-4.1-1.2-6.1-5.3-6.1-.5 0-2.1.1-2.8.1l-2.4 6.6zm10.3 7.2l-2.5.2c-2.5.2-4.5 1.9-4.5 4.9 0 3.6 2 4.7 4 4.7 1.1 0 2.4-.6 2.9-1.2v-8.6zM306 43.7l3.5-1.6V20.3l-3.7-1.7v-2.8l13.3-2.1h.9v4.2h.3c2.9-2.6 6.8-4.2 11.1-4.2 5.3 0 8 2.6 8 8.5v19.9l3.5 1.6v2.9h-17.6v-2.9l3.4-1.6V24.7c0-3.3-1.4-4.5-4.3-4.5-1.6 0-3 .3-4.4.9v21.1l3.4 1.6v2.9H306v-3z" style="fill: black"/><g fill="#B5CDE2"><path d="M343.6 43.8l3.5-1.6V20.4l-3.7-1.7v-2.8l13.3-2.1h.9V18h.3c2.9-2.6 5.6-4.2 10-4.2 3.8 0 6.2 1.3 7.3 4.2h.3c2.9-2.6 6-4.2 10.4-4.2 5.3 0 8.1 2.7 8.1 8.6v19.8l3.5 1.6v2.9h-16.9v-2.9l2.8-1.6V24.8c0-3.3-1.1-4.5-4-4.5-1.1 0-2.3.3-3.6.8v21.1l2.8 1.6v2.9h-16.3v-2.9l2.8-1.6V24.8c0-3.3-1-4.5-4-4.5-1.1 0-2.3.3-3.6.9v21.1l2.8 1.6v2.9h-17v-3zM431.7 30.7c0 10.9-6.7 16.9-16.4 16.9s-16.4-6-16.4-16.9 6.7-16.8 16.4-16.8 16.4 5.9 16.4 16.8zm-11.2 0c0-10.6-1.7-12.4-5.2-12.4-3.6 0-5.3 1.8-5.3 12.4s1.8 12.4 5.3 12.4 5.2-1.9 5.2-12.4zM433.1 43.8l3.5-1.6V20.4l-3.7-1.7v-2.8l13.3-2.1h.9V18h.3c2.9-2.6 6.8-4.2 11.1-4.2 5.3 0 8 2.6 8 8.5v19.8l3.5 1.6v2.9h-17.5v-2.9l3.4-1.6V24.8c0-3.3-1.4-4.5-4.3-4.5-1.6 0-3 .3-4.4.9v21.1l3.4 1.6v2.9h-17.5v-3zM482.2 31.6c.5 6.2 3.5 9.2 9.3 9.2 4.1 0 6.4-.4 8.6-1.1v3.1c-1.5 2.1-6.3 4.7-12.2 4.7-11 0-16.7-6.1-16.7-17 0-10.6 6.2-16.7 15.8-16.7 9.6 0 14.3 4.3 14.3 17.8h-19.1zm-.1-3.8l8.9-.5c0-8.5-1.4-9.9-4.1-9.9-2.9 0-4.7 1.9-4.8 10.4z"/><path d="M516 50.8l.5-1.2-12.9-30.4-3-1.6v-3H519v3l-3.4 1.5 6 16.8h.2l5.5-16.8-3.4-1.5v-3h12.4v3l-3.2 1.6-12 32.6c-2.6 7-6.1 9.4-11.3 9.4-2.2 0-4-.7-5.4-1.7v-3.8c1.3.3 3 .4 4.1.4 3.4 0 5.9-1.5 7.5-5.3zM556.2 7.4l-3.6-1.6V2.9L566 .8h.9v40.5l3.4 1.9v2.7l-12.7 1.4h-.9V44h-.3c-1.3 1.7-4.1 3.5-8.1 3.5-5.8 0-12.8-3.7-12.8-16 0-12.9 7.2-17.6 15.6-17.6 1.8 0 3.8.4 5.2 1.3V7.4zm0 12.1c-.8-.6-1.7-1.1-3.6-1.1-3.4 0-5.9 3-5.9 12.1 0 7.9 2 11.3 6.2 11.3 1.6 0 2.5-.3 3.3-.6V19.5zM582 31.6c.5 6.2 3.5 9.2 9.3 9.2 4.1 0 6.4-.4 8.6-1.1v3.1c-1.5 2.1-6.3 4.7-12.2 4.7-11 0-16.7-6.1-16.7-17 0-10.6 6.2-16.7 15.8-16.7 9.6 0 14.3 4.3 14.3 17.8H582zm-.1-3.8l8.9-.5c0-8.5-1.4-9.9-4.1-9.9-2.9 0-4.7 1.9-4.8 10.4zM609.8 24.6h-5v-8.4c3-1 6.6-2.5 12.3-2.5 8.6 0 13.7 2.5 13.7 9.7V42l3.4 1.6V46c-1 .6-3.4 1.3-6 1.3-3.3 0-6.3-1.1-6.8-4.5h-.4c-1.4 2.9-5.2 4.6-9.2 4.6-5.7 0-9.2-3.7-9.2-9 0-6.6 4.2-7.9 11.3-9.1l6.1-1V24c0-4.1-1.2-6.1-5.3-6.1-.5 0-2.1.1-2.7.1l-2.2 6.6zm10.3 7.3l-2.5.2c-2.5.2-4.5 1.9-4.5 4.9 0 3.6 1.9 4.7 4 4.7 1.1 0 2.3-.6 2.9-1.2v-8.6zM648.1.7h.9v41.4l3.4 1.6v3h-17.5v-3l3.4-1.6V7.4l-3.6-1.7V2.8L648.1.7zM654 45.5V37h4.5l1.8 5.3c.7.7 3.3 1 5.2 1 3 0 5.2-.7 5.2-3.2 0-2.3-.8-3.3-4.2-4.1l-3.9-.9c-5.9-1.3-8.6-6-8.6-10.8 0-6.1 4.2-10.7 13.6-10.7 3.8 0 7.6.6 10.1 1.7v7.9h-4.5l-1.4-4.4c-.7-.4-3-.8-4.7-.8-2.5 0-4.2 1.2-4.2 3.1 0 1.9.9 3 4.4 3.8l3.8.8c6.2 1.3 8.5 5.4 8.5 10.3 0 6.7-4.2 11.3-14.4 11.3-3.5.2-8.1-.5-11.2-1.8z"/></g></svg>
