<svg x="0px" y="0px" width="172.4px" height="38.1px" viewBox="0 0 172.4 38.1" fill="#ffffff">
			<g>
				<path d="M26.4,20.3l2-1.1V3.3h-1.5l-3.7,5h-0.4L23,2.8h16.2l0.2,5.5h-0.4l-3.7-5h-1.6v15.8l2,1.1v0.5h-9.4V20.3z"/>
				<path d="M40.9,19.6V2l-1.6-0.6V1L45,0h0.6v8.3l0.2-0.1c1.3-1.1,3.1-1.8,4.9-1.8c2.5,0,3.6,1.4,3.6,4v9.2l1.3,0.7
					l0,0.5h-7.4v-0.5l1.3-0.7v-9.2c0-1.4-0.6-2-1.8-2c-0.8,0-1.5,0.2-2,0.6v10.6l1.3,0.7v0.5h-7.4v-0.5L40.9,19.6z"/>
				<path d="M59.6,14.2c0.2,2.9,1.5,5.2,4.5,5.2c1.5,0,2.6-0.7,3.6-1.2v0.6c-0.8,1.1-2.7,2.5-5.5,2.5
					c-4.8,0-7.2-2.7-7.2-7.3c0-4.5,2.7-7.3,7-7.3c4.1,0,6.2,2,6.2,7.4v0.1H59.6z M59.5,13.5l4.2-0.3c0-3.6-0.6-6-1.9-6
					C60.6,7.2,59.5,10,59.5,13.5z"/>
				<path d="M0,27.8c0-7.7,5.1-10.4,10.7-10.4c2.4,0,4.7,0.4,5.9,0.9l0.1,5.3h-0.5l-3.3-5.2c-0.6-0.2-1.1-0.3-2.1-0.3
					c-3,0-4.5,3.5-4.5,9.2c0.1,6.8,1.2,9.9,4,9.9c0.7,0,1.3-0.1,1.7-0.3v-7.3l-1.8-1V28h8.8v0.7l-1.8,1v7.2c-1.5,0.6-4,1.1-6.6,1.1
					C4.1,38,0,35,0,27.8z"/>
				<path d="M18.2,24.3v-0.4l5.9-1l0.6,0.1v11.6c0,1.4,0.7,1.8,1.8,1.8c0.7,0,1.4-0.3,1.9-0.9V25l-1.6-0.7v-0.5l5.9-1
					l0.6,0.1v13.3l1.6,0.7v0.4L29.1,38l-0.6-0.1v-1.8h-0.2c-1.1,1-2.6,1.9-4.4,1.9c-2.8,0-4.1-1.7-4.1-4.2V25L18.2,24.3z"/>
				<path d="M55.2,22.8l0.5,0.1l0,4.3h0.1c0.6-3.2,2-4.3,3.7-4.3c0.3,0,0.6,0,0.7,0.1v4.4c-0.3-0.1-0.8-0.1-1.2-0.1
					c-1.3,0-2.3,0.2-3.2,0.6l0,8.5l1.3,0.7l0,0.6h-7.7v-0.5l1.4-0.7V24.7l-1.6-0.5v-0.4L55.2,22.8z"/>
				<path d="M70,23.1v-4.5L68.4,18v-0.4l6-1.1l0.6,0.1v19.5l1.6,0.6v0.5l-5.9,0.8L70.2,38v-1.6h-0.1
					c-0.9,0.9-2.1,1.6-3.9,1.6c-3.2,0-5.6-2.5-5.6-7.5c0-5.3,2.7-7.9,6.9-7.9C68.7,22.7,69.6,22.9,70,23.1z M70,35.6V24
					c-0.4-0.2-0.7-0.5-1.6-0.5c-1.6,0.1-2.6,2.5-2.6,6.8c0,3.9,0.7,6,2.8,5.9C69.2,36.1,69.7,35.9,70,35.6z"/>
				<path d="M83,22.7l0.5,0.1v13.6l1.3,0.7l0,0.6h-7.7v-0.5l1.4-0.7V24.9L77,24.3v-0.5L83,22.7z M83.6,19.1
					c0,1.4-1.2,2.5-2.6,2.5c-1.5,0-2.6-1.1-2.6-2.5c0-1.4,1.1-2.5,2.6-2.5C82.4,16.5,83.6,17.7,83.6,19.1z"/>
				<path d="M100.8,36.4V24.8l-1.6-0.6v-0.6l5.9-1.1l0.6,0.1v1.7h0.2c1.3-1.1,3.2-1.9,5-1.9c2.6,0,3.7,1.2,3.7,3.9v9.9
					l1.4,0.8l0,0.6h-7.7v-0.5l1.4-0.7v-9.7c0-1.5-0.6-2.1-1.9-2.1c-0.8,0-1.4,0.2-2,0.6v11.1l1.3,0.7v0.6h-7.7v-0.5L100.8,36.4z"/>
				<path d="M92.4,29.1v-1.9c0-2.9-0.6-3.9-2.4-3.9c-0.2,0-0.4,0-0.6,0.1l-3.2,4.3h-0.5v-4c1.4-0.4,3.1-0.9,5.4-0.9
					c3.9,0,6.2,1.1,6.2,4.4v9.4l1.4,0.4v0.4c-0.6,0.3-1.7,0.7-2.9,0.7c-1.9,0-2.9-0.6-3.3-1.7h-0.1c-0.8,1.1-2,1.8-3.8,1.8
					c-2.3,0-3.9-1.5-3.9-4c0-2.4,1.5-3.8,4.6-4.3L92.4,29.1z M92.4,35.6v-5.8l-1,0.1c-1.5,0.1-2.1,1.1-2.1,3.3c0,2.4,0.8,3,1.9,3
					C91.8,36.1,92.2,35.9,92.4,35.6z"/>
				<path d="M42.7,29.1v-1.9c0-2.9-0.6-3.9-2.4-3.9c-0.2,0-0.4,0-0.6,0.1l-3.2,4.3H36v-4c1.4-0.4,3.1-0.9,5.4-0.9
					c3.9,0,6.2,1.1,6.2,4.4v9.4L49,37v0.4c-0.6,0.3-1.7,0.7-2.9,0.7c-1.9,0-2.9-0.6-3.3-1.7h-0.1c-0.8,1.1-2,1.8-3.8,1.8
					c-2.3,0-3.9-1.5-3.9-4c0-2.4,1.5-3.8,4.6-4.3L42.7,29.1z M42.7,35.6v-5.8l-1,0.1c-1.5,0.1-2.1,1.1-2.1,3.3c0,2.4,0.8,3,1.9,3
					C42.1,36.1,42.4,35.9,42.7,35.6z"/>
</g>
<g>
	<path d="M121.1,37.2l1.8-0.4V18.9l-1.8-0.4V18h9.5v0.5l-2,0.4v18.3h3.1l4.5-7h0.5l-0.4,7.5h-15.3V37.2z"/>
	<path d="M142.9,22.4l0.7,0.1v14.3l1.5,0.4v0.5H137v-0.5l1.6-0.4V24.4l-1.7-0.7v-0.5L142.9,22.4z M143.6,18.9
		c0,1.4-1.2,2.5-2.6,2.5c-1.5,0-2.6-1.1-2.6-2.5s1.1-2.6,2.6-2.6C142.4,16.3,143.6,17.4,143.6,18.9z"/>
	<path d="M158.3,24.3l-4.4,13.4h-3l-5.3-13.8l-1.3-0.7v-0.5h8.4v0.5l-1.7,0.7l3.5,9.7h0.1l3.1-9.3l-2.1-1.1v-0.5h4.3
		v0.5L158.3,24.3z"/>
	<path d="M163.5,29.7c0.2,3.7,1.4,5.9,5.2,5.9c1.3,0,2.3-0.2,3.3-0.6v0.4c-0.8,1.3-2.9,2.6-5.9,2.6
		c-5,0-7.6-3.1-7.6-7.9c0-4.8,2.8-7.7,7.4-7.7c4.6,0,6.5,2.5,6.5,6.9v0.4H163.5z M163.5,29.1l4.2-0.2c0-4.7-0.6-6-1.9-6
		C164.4,22.9,163.5,24.8,163.5,29.1z"/>
</g>
</svg>
